<svg width="800" height="600" viewBox="0 0 800 600" xmlns="http://www.w3.org/2000/svg">
  <defs>
    <radialGradient id="eyeGradient" cx="50%" cy="50%" r="50%" fx="50%" fy="50%">
      <stop offset="0%" style="stop-color:#E31B23;stop-opacity:1" />
      <stop offset="70%" style="stop-color:#A70000;stop-opacity:1" />
      <stop offset="100%" style="stop-color:#800000;stop-opacity:1" />
    </radialGradient>
    <filter id="veinsFilter">
      <feTurbulence type="fractalNoise" baseFrequency="0.03" numOctaves="5" seed="1" />
      <feDisplacementMap in="SourceGraphic" scale="20" />
    </filter>
  </defs>
  
  <!-- Background -->
  <rect width="100%" height="100%" fill="#1a1a1a"/>
  
  <!-- Eye shape -->
  <circle cx="400" cy="300" r="150" fill="url(#eyeGradient)" />
  
  <!-- Veins -->
  <circle cx="400" cy="300" r="150" fill="none" stroke="#800000" stroke-width="2" filter="url(#veinsFilter)" opacity="0.6" />
  
  <!-- Pupil -->
  <circle cx="400" cy="300" r="60" fill="#000000" />
  
  <!-- Light reflection -->
  <circle cx="370" cy="270" r="15" fill="#ffffff" opacity="0.3" />
  
  <!-- Radiating lines -->
  <g transform="translate(400 300)" stroke="#800000" stroke-width="3" opacity="0.7">
    <line x1="-180" y1="0" x2="-160" y2="0" transform="rotate(0)" />
    <line x1="-180" y1="0" x2="-160" y2="0" transform="rotate(45)" />
    <line x1="-180" y1="0" x2="-160" y2="0" transform="rotate(90)" />
    <line x1="-180" y1="0" x2="-160" y2="0" transform="rotate(135)" />
    <line x1="-180" y1="0" x2="-160" y2="0" transform="rotate(180)" />
    <line x1="-180" y1="0" x2="-160" y2="0" transform="rotate(225)" />
    <line x1="-180" y1="0" x2="-160" y2="0" transform="rotate(270)" />
    <line x1="-180" y1="0" x2="-160" y2="0" transform="rotate(315)" />
  </g>
</svg>